<?xml version="1.0" standalone="no"?>
<!DOCTYPE svg PUBLIC "-//W3C//DTD SVG 20010904//EN"
 "http://www.w3.org/TR/2001/REC-SVG-20010904/DTD/svg10.dtd">
<svg version="1.0" xmlns="http://www.w3.org/2000/svg"
 width="4800.000000pt" height="7200.000000pt" viewBox="0 0 4800.000000 7200.000000"
 preserveAspectRatio="xMidYMid meet">

<g transform="translate(0.000000,7200.000000) scale(0.100000,-0.100000)"
fill="#000000" stroke="none">
<path d="M4690 41351 c0 -16 -30 -21 -200 -31 -96 -6 -182 -16 -205 -24 -22
-9 -68 -15 -103 -16 -36 0 -87 -9 -119 -20 -32 -11 -77 -20 -100 -20 -24 0
-66 -9 -95 -20 -29 -11 -66 -20 -81 -20 -15 0 -44 -7 -65 -16 -20 -9 -55 -20
-77 -24 -47 -10 -123 -35 -181 -61 -23 -11 -50 -19 -60 -19 -10 0 -32 -9 -49
-20 -16 -11 -38 -20 -48 -20 -10 0 -35 -9 -55 -19 -20 -11 -48 -24 -62 -30
-14 -6 -32 -15 -40 -20 -8 -5 -26 -14 -40 -20 -14 -6 -32 -15 -40 -20 -8 -5
-26 -14 -40 -20 -14 -6 -55 -28 -91 -49 -329 -186 -614 -438 -821 -727 -69
-96 -238 -412 -238 -445 0 -5 -8 -29 -19 -52 -27 -61 -41 -105 -57 -168 -7
-30 -20 -80 -29 -110 -8 -30 -15 -68 -15 -85 0 -17 -8 -56 -17 -86 -15 -47
-18 -96 -17 -369 0 -210 4 -332 12 -365 7 -27 17 -81 23 -120 5 -38 16 -90 24
-115 57 -188 70 -227 76 -240 5 -8 21 -44 36 -80 43 -101 161 -291 220 -355
16 -16 55 -61 87 -98 57 -66 252 -245 318 -292 142 -102 352 -235 371 -235 5
0 20 -9 34 -20 14 -11 32 -20 40 -20 8 0 31 -9 51 -19 77 -41 123 -61 140 -61
9 0 31 -9 47 -20 17 -11 41 -20 55 -20 14 0 39 -9 55 -20 17 -11 40 -20 53
-20 12 0 40 -9 62 -20 22 -11 49 -20 60 -20 11 0 38 -9 60 -20 22 -11 49 -20
60 -20 11 0 38 -9 60 -20 22 -11 50 -20 64 -20 13 0 43 -9 67 -20 24 -11 56
-20 70 -20 15 0 46 -9 70 -20 24 -11 56 -20 70 -20 15 0 46 -9 70 -20 24 -11
58 -20 75 -20 18 0 51 -9 75 -20 24 -11 59 -20 77 -20 18 0 46 -7 62 -15 16
-8 55 -19 87 -24 32 -5 76 -16 98 -25 22 -8 54 -15 70 -16 17 0 54 -9 83 -20
29 -11 67 -20 86 -20 19 0 53 -9 77 -20 24 -11 59 -20 77 -20 18 0 46 -7 62
-15 16 -9 51 -18 77 -21 27 -3 69 -14 95 -25 26 -10 58 -19 72 -19 14 0 48 -9
76 -20 28 -11 62 -20 76 -20 14 0 42 -9 64 -20 22 -11 51 -20 65 -20 14 0 39
-7 56 -15 16 -9 48 -20 72 -25 49 -10 125 -35 185 -61 23 -11 53 -19 65 -19
12 0 33 -9 47 -20 14 -11 33 -20 42 -20 17 0 124 -53 142 -71 6 -5 17 -9 26
-9 9 0 25 -9 35 -20 10 -11 23 -20 30 -20 19 0 184 -126 253 -193 106 -103
171 -214 211 -359 30 -110 30 -326 0 -436 -57 -205 -195 -403 -354 -509 -22
-15 -49 -35 -60 -44 -17 -15 -98 -61 -152 -87 -10 -5 -37 -18 -60 -30 -23 -12
-50 -22 -60 -22 -10 0 -31 -9 -48 -20 -16 -11 -41 -20 -55 -20 -14 0 -45 -9
-69 -20 -24 -11 -55 -20 -71 -20 -15 0 -53 -9 -85 -20 -32 -11 -79 -20 -104
-20 -26 0 -71 -7 -101 -15 -30 -9 -129 -20 -220 -25 -344 -19 -869 -6 -980 25
-30 8 -80 15 -111 15 -31 0 -76 7 -100 15 -24 9 -71 18 -104 21 -33 3 -84 15
-113 25 -29 10 -67 19 -85 19 -18 1 -50 9 -72 20 -22 11 -55 19 -73 20 -18 0
-43 5 -55 12 -12 6 -49 19 -82 29 -75 21 -118 36 -173 60 -23 11 -53 19 -65
19 -12 0 -35 9 -52 20 -16 11 -38 20 -48 20 -9 0 -34 9 -54 20 -21 11 -44 20
-51 20 -7 0 -30 8 -50 19 -20 10 -57 28 -82 39 -209 95 -270 130 -411 238 -30
22 -112 78 -184 124 -71 46 -131 87 -133 92 -2 4 -15 8 -28 8 -14 0 -34 5 -44
10 -13 7 -21 7 -25 0 -3 -6 -51 -10 -110 -10 -79 0 -104 -3 -108 -14 -3 -8
-21 -17 -39 -21 -18 -3 -71 -25 -118 -48 -69 -34 -102 -59 -175 -132 -73 -73
-98 -106 -132 -175 -23 -47 -45 -100 -48 -118 -4 -18 -13 -36 -21 -39 -21 -8
-21 -338 0 -346 8 -3 17 -21 21 -39 12 -61 77 -181 120 -222 23 -23 88 -72
143 -111 56 -38 132 -91 169 -117 63 -44 164 -108 238 -150 36 -20 282 -142
345 -170 25 -11 62 -29 82 -39 20 -11 45 -19 55 -19 10 0 32 -9 48 -20 17 -11
39 -20 50 -20 11 0 34 -9 50 -20 17 -11 40 -20 53 -20 12 0 39 -9 59 -20 21
-11 48 -20 61 -20 12 0 40 -9 62 -20 22 -11 50 -20 62 -20 13 0 43 -9 67 -20
24 -11 55 -20 70 -20 14 -1 44 -9 66 -20 22 -11 56 -19 76 -20 20 0 56 -9 80
-20 24 -11 60 -20 80 -20 20 0 62 -9 94 -20 32 -11 77 -20 100 -20 24 0 62 -7
86 -15 24 -9 87 -20 140 -25 52 -5 109 -14 125 -21 16 -6 92 -15 169 -20 106
-7 143 -12 151 -24 17 -23 1191 -23 1208 0 8 11 48 17 146 25 74 6 157 17 184
25 27 8 70 15 96 15 26 0 73 9 105 20 32 11 73 20 91 20 19 0 57 9 86 20 29
11 67 20 83 20 17 1 48 9 70 20 22 11 50 19 63 20 12 0 40 9 62 20 22 11 50
20 62 20 13 0 37 9 53 20 17 11 39 20 50 20 11 0 34 9 50 20 17 11 39 20 50
20 11 0 31 9 45 20 14 11 31 20 38 20 7 0 32 10 55 22 23 12 51 26 62 32 417
211 704 447 946 775 118 161 250 419 299 586 5 17 15 50 23 75 29 89 41 145
73 335 23 135 23 532 0 650 -9 44 -16 94 -16 110 0 17 -7 58 -16 90 -9 33 -22
85 -29 115 -16 66 -40 135 -60 172 -8 14 -15 33 -15 42 0 14 -52 119 -108 216
-114 198 -398 482 -666 665 -69 47 -83 56 -113 70 -17 8 -34 19 -37 23 -3 5
-67 39 -143 76 -76 37 -155 76 -175 87 -20 10 -44 19 -53 19 -8 0 -32 9 -52
20 -21 11 -44 20 -51 20 -7 0 -30 9 -52 20 -22 11 -48 20 -60 20 -11 0 -37 9
-57 20 -21 11 -48 20 -60 20 -13 0 -40 9 -60 20 -21 11 -47 20 -59 20 -12 0
-41 9 -65 20 -24 11 -55 20 -69 20 -14 0 -42 9 -63 20 -20 11 -48 20 -62 20
-13 0 -47 9 -75 20 -28 11 -63 20 -78 20 -15 1 -45 9 -67 20 -22 11 -54 19
-71 20 -18 0 -51 9 -75 20 -24 11 -60 20 -80 20 -20 0 -56 9 -80 20 -24 11
-60 20 -80 20 -20 0 -56 9 -80 20 -24 11 -63 20 -87 20 -24 0 -56 7 -72 15
-16 8 -55 19 -87 24 -32 5 -76 16 -98 25 -22 8 -54 15 -71 16 -18 0 -51 9 -75
20 -24 11 -58 20 -75 20 -18 0 -51 9 -75 20 -24 11 -57 20 -74 20 -16 0 -50 9
-74 20 -24 11 -55 20 -70 20 -14 0 -46 9 -70 20 -24 11 -54 20 -67 20 -14 0
-42 9 -64 20 -22 11 -50 20 -62 20 -13 1 -41 9 -63 20 -22 11 -51 20 -65 20
-14 0 -38 9 -55 20 -16 11 -38 20 -48 20 -9 0 -34 9 -54 20 -21 11 -45 20 -55
20 -9 0 -19 4 -22 8 -3 5 -38 26 -78 46 -171 89 -244 141 -363 261 -110 109
-156 186 -197 328 -33 113 -36 311 -8 430 35 145 92 275 162 367 87 115 286
274 433 347 11 5 39 19 62 31 23 12 50 22 60 22 10 0 35 9 56 20 20 11 48 20
61 20 13 0 43 9 67 20 24 11 60 20 80 20 20 0 56 7 80 16 24 9 85 20 134 25
50 4 133 15 185 23 135 22 665 22 800 0 52 -8 140 -19 195 -24 55 -5 125 -16
155 -25 30 -8 71 -15 92 -15 20 0 60 -9 88 -20 28 -11 66 -20 84 -20 19 0 53
-9 77 -20 24 -11 58 -20 74 -20 17 0 48 -9 70 -20 22 -11 53 -19 68 -20 15 0
45 -9 67 -20 22 -11 48 -20 60 -20 11 0 37 -9 57 -20 21 -11 46 -20 55 -20 10
0 35 -9 55 -20 21 -11 44 -20 51 -20 19 0 116 -47 191 -92 34 -21 67 -38 71
-38 4 0 42 -16 85 -35 43 -20 139 -56 214 -81 l136 -45 146 3 146 3 108 65
c141 85 226 169 285 280 l44 85 7 150 c11 236 -20 331 -161 494 -44 51 -83 98
-87 105 -5 7 -21 21 -38 30 -16 9 -61 37 -100 61 -38 25 -85 52 -102 60 -18 8
-33 20 -33 25 0 6 -14 10 -31 10 -17 0 -42 9 -56 20 -14 11 -32 20 -40 20 -8
0 -26 9 -40 20 -14 11 -32 20 -40 20 -8 0 -31 9 -51 19 -67 35 -129 61 -143
61 -8 0 -27 9 -44 20 -16 11 -41 20 -55 20 -14 0 -38 9 -55 20 -16 11 -40 20
-53 20 -12 0 -40 9 -62 20 -22 11 -50 20 -62 20 -13 1 -41 9 -63 20 -22 11
-52 19 -66 20 -15 0 -46 9 -70 20 -24 11 -60 20 -80 20 -20 0 -56 9 -80 20
-24 11 -62 20 -84 20 -22 0 -64 9 -93 20 -29 11 -74 20 -101 20 -27 0 -65 7
-86 16 -21 8 -85 19 -144 24 -58 5 -119 14 -135 20 -16 6 -101 15 -189 20
-167 11 -207 16 -207 31 0 5 -177 9 -410 9 -247 0 -410 -4 -410 -9z"/>
<path d="M9980 41180 c-30 -5 -75 -11 -100 -15 -44 -6 -87 -23 -185 -73 -60
-31 -60 -31 -142 -107 -105 -96 -165 -185 -210 -313 l-28 -77 0 -1455 0 -1455
27 -75 c31 -85 53 -131 87 -178 44 -62 107 -131 161 -175 68 -56 224 -137 265
-137 16 0 52 -7 79 -15 63 -19 166 -19 239 0 32 8 69 15 83 15 14 0 42 9 62
19 20 11 48 24 62 30 80 35 219 158 277 246 14 22 34 52 45 67 10 15 18 32 18
38 0 5 9 27 20 47 11 21 20 49 20 63 0 14 7 47 15 74 13 42 15 189 15 1022 0
606 4 975 10 979 5 3 577 5 1272 5 1045 0 1280 -3 1363 -15 55 -8 121 -15 146
-15 25 0 72 -9 104 -20 32 -11 70 -20 85 -20 16 0 47 -9 71 -20 24 -11 55 -20
69 -20 14 0 39 -9 55 -20 17 -11 36 -20 44 -20 14 0 166 -75 236 -116 22 -13
54 -31 70 -40 138 -78 385 -302 494 -449 89 -119 191 -289 191 -317 0 -6 9
-29 19 -52 27 -58 51 -132 62 -194 5 -29 16 -78 24 -109 24 -93 21 -400 -6
-538 -12 -60 -30 -131 -40 -157 -11 -26 -19 -54 -19 -63 0 -9 -6 -29 -14 -43
-7 -15 -32 -65 -54 -112 -124 -259 -346 -502 -637 -697 -57 -39 -88 -56 -195
-108 -52 -26 -112 -55 -132 -66 -20 -10 -45 -19 -55 -19 -10 0 -35 -9 -56 -20
-20 -11 -48 -20 -62 -20 -13 0 -46 -8 -72 -19 -26 -10 -77 -21 -113 -25 -36
-3 -90 -13 -120 -21 -47 -13 -296 -15 -1818 -15 -1737 0 -1763 0 -1819 -20
-32 -11 -66 -20 -78 -20 -11 0 -33 -9 -50 -20 -16 -11 -36 -20 -44 -20 -20 0
-118 -67 -175 -120 -85 -79 -149 -173 -201 -295 -32 -76 -35 -215 -27 -1345 9
-1234 3 -1125 74 -1280 96 -208 303 -371 513 -403 131 -21 334 -7 400 26 17 8
52 25 80 38 65 32 111 63 160 107 54 50 122 129 138 161 122 234 113 148 108
982 -3 715 -3 717 17 728 15 8 394 11 1319 11 740 1 1330 5 1373 10 41 5 132
14 201 20 70 5 146 17 169 25 23 8 63 15 89 15 25 1 64 8 86 16 22 9 65 19 95
24 31 4 70 15 87 24 18 9 44 16 58 16 14 0 43 9 65 20 22 11 50 20 62 20 13 0
37 9 53 20 17 11 39 20 49 20 10 0 40 9 65 21 55 25 116 53 151 68 14 6 32 15
40 20 8 5 26 14 40 20 14 6 32 15 40 20 8 5 22 12 30 15 8 3 38 20 65 36 28
16 57 33 65 37 28 13 247 162 317 215 281 214 527 465 734 747 123 170 259
415 325 586 14 39 30 75 35 80 4 6 12 29 18 50 5 22 17 60 25 85 40 117 96
349 96 397 0 46 20 133 31 133 5 0 9 155 9 376 0 313 -2 378 -14 390 -8 8 -17
36 -21 62 -15 124 -26 181 -65 322 -43 156 -44 159 -122 355 -19 47 -24 58
-47 103 -5 9 -23 46 -40 82 -79 164 -184 337 -311 511 -225 308 -616 658 -925
829 -11 6 -38 22 -60 35 -22 13 -56 33 -75 43 -19 10 -45 24 -57 30 -13 7 -31
16 -40 20 -10 5 -27 13 -38 19 -11 5 -42 20 -70 33 -27 12 -67 31 -87 41 -20
11 -45 19 -55 19 -10 0 -31 9 -48 20 -16 11 -39 20 -49 20 -10 0 -37 8 -60 19
-58 26 -134 51 -181 61 -22 4 -57 15 -77 24 -21 9 -53 16 -73 16 -20 0 -50 7
-67 16 -16 8 -64 19 -107 24 -42 5 -92 14 -111 20 -35 12 -131 20 -445 39
-187 12 -3292 12 -3375 1z"/>
<path d="M21040 41063 c-195 -14 -387 -79 -541 -184 -78 -53 -186 -172 -236
-260 -61 -110 -3560 -6811 -3604 -6904 -51 -106 -69 -181 -69 -283 0 -174 62
-311 209 -466 144 -150 313 -229 547 -256 71 -8 740 -10 2379 -8 2150 3 2284
5 2354 22 185 44 311 114 442 245 80 80 103 110 137 181 93 193 94 391 1 579
-33 66 -60 103 -123 166 -129 130 -259 202 -442 247 l-89 22 -1595 5 -1596 6
1131 2167 c621 1192 1134 2166 1139 2165 5 -2 653 -1202 1440 -2668 787 -1465
1445 -2689 1462 -2719 158 -278 555 -458 904 -410 159 22 381 115 495 207 159
129 265 338 265 523 0 80 -29 198 -66 272 -60 119 -3669 6849 -3712 6922 -158
267 -514 451 -832 429z"/>
<path d="M30499 41059 c-282 -29 -554 -176 -687 -371 -65 -94 -3656 -6981
-3684 -7065 -54 -157 -45 -299 26 -446 80 -164 213 -296 381 -377 114 -55 189
-76 325 -91 63 -6 858 -9 2375 -6 2478 3 2305 -1 2465 55 252 88 462 301 515
523 19 82 19 236 0 317 -52 221 -266 433 -520 516 -163 53 -64 50 -1782 56
l-1592 5 1131 2168 c622 1192 1134 2167 1138 2167 3 0 658 -1214 1455 -2697
796 -1484 1467 -2725 1490 -2758 186 -264 605 -409 950 -330 34 7 101 30 150
50 235 94 365 208 456 400 73 154 84 300 34 450 -14 42 -772 1467 -1870 3515
-1016 1895 -1861 3469 -1878 3499 -39 66 -138 174 -209 229 -123 95 -316 173
-460 187 -34 3 -79 7 -98 9 -19 2 -69 -1 -111 -5z"/>
<path d="M36485 41020 c-139 -35 -237 -91 -341 -195 -100 -99 -150 -177 -193
-303 l-26 -77 -3 -3530 c-2 -2627 0 -3549 8 -3605 45 -291 278 -539 567 -604
65 -14 284 -16 2335 -16 2535 0 2331 -6 2498 76 81 40 109 61 190 143 105 105
150 179 192 311 19 64 23 95 22 210 0 118 -4 145 -27 215 -39 116 -91 199
-187 295 -96 96 -178 148 -295 188 l-80 27 -1877 3 -1878 2 0 2123 0 2122 44
-45 c24 -25 527 -576 1118 -1225 591 -649 1102 -1206 1136 -1237 227 -209 614
-226 885 -39 25 17 71 57 103 90 33 33 541 595 1129 1248 l1070 1189 5 -2550
5 -2551 27 -80 c41 -119 92 -199 193 -300 104 -105 203 -161 345 -196 119 -30
290 -24 405 15 237 81 424 289 479 533 15 66 16 384 16 3616 0 3501 0 3545
-20 3621 -25 97 -66 182 -131 268 -159 212 -467 321 -744 263 -105 -22 -237
-92 -317 -167 -37 -35 -723 -790 -1524 -1678 -802 -888 -1461 -1615 -1465
-1615 -4 0 -656 716 -1449 1590 -793 875 -1478 1627 -1522 1671 -145 147 -276
204 -488 210 -101 3 -140 0 -205 -16z"/>
</g>
</svg>
